#!OML:ASF I:\Actors\actors\Patient Classification 1\Patient 1\Session 1\Subject1.ASF
:FULLY-SPECIFIED
:DEGREES
1053
root 0.680911 17.4427 9.24654 8.35717 -0.945463 -8.38052
lowerback -2.248 1.22644 6.1026
upperback -8.50545 1.8897 1.72766
thorax -7.54017 0.5906 -1.66766
lowerneck -12.5621 -5.04622 -5.86516
upperneck 25.3833 -8.3194 9.12243
head 10.8847 -3.34689 3.1745
rclavicle -6.60959e-015 1.39149e-014
rhumerus -58.9762 -36.9608 -48.7436
rradius 17.321
rwrist 58.2915
rhand 2.39056 -33.6869
rfingers 7.12502
rthumb 27.878 -421.638
lclavicle -6.60959e-015 1.39149e-014
lhumerus -51.4093 28.8386 61.7462
lradius 23.1124
lwrist -26.4615
lhand -22.2037 -12.612
lfingers 7.12502
lthumb 4.21204 17.3261
rfemur -2.78322 24.2178 25.4157
rtibia 2.98834
rfoot -12.5843 -26.0128
rtoes 6.27277
lfemur 6.40884 -43.9045 -13.8152
ltibia -4.80309
lfoot -21.1335 52.0661
ltoes 12.4017
1054
root 0.675269 17.4418 9.23874 8.35705 -0.878604 -8.47199
lowerback -2.26028 1.23319 6.15583
upperback -8.55791 1.9043 1.76607
thorax -7.59036 0.59361 -1.65725
lowerneck -12.5582 -5.06299 -5.97445
upperneck 25.6033 -8.37203 9.23747
head 10.9819 -3.36399 3.2323
rclavicle 5.36719e-015 3.57812e-014
rhumerus -59.7753 -38.276 -46.9506
rradius 16.9504
rwrist 60.2767
rhand 2.10017 -33.8676
rfingers 7.12502
rthumb 27.6004 -421.864
lclavicle 5.36719e-015 3.57812e-014
lhumerus -51.3382 29.468 61.2989
lradius 22.6336
lwrist -27.2738
lhand -22.1621 -12.6145
lfingers 7.12502
lthumb 4.25228 17.3228
rfemur -2.80202 24.1919 25.5396
rtibia 2.97534
rfoot -12.5299 -26.0366
rtoes 6.17616
lfemur 6.30824 -43.8828 -13.6043
ltibia -4.78669
lfoot -21.0618 51.9984
ltoes 12.3082
1055
root 0.668426 17.4415 9.23122 8.32374 -0.827114 -8.56067
lowerback -2.21213 1.24482 6.1609
upperback -8.61481 1.93079 1.81985
thorax -7.68095 0.605233 -1.60581
lowerneck -12.658 -5.10512 -5.95082
upperneck 25.9889 -8.45961 9.18725
head 11.1518 -3.39652 3.20281
rclavicle 1.11319e-014 1.03368e-014
rhumerus -60.4539 -39.3107 -45.4874
rradius 16.7471
rwrist 61.7297
rhand 2.11139 -33.761
rfingers 7.12502
rthumb 27.6111 -421.755
lclavicle 1.11319e-014 1.03368e-014
lhumerus -51.3663 30.1392 60.8043
lradius 22.2037
lwrist -28.1738
lhand -22.0251 -12.6403
lfingers 7.12502
lthumb 4.38448 17.2943
rfemur -2.79055 24.1888 25.6778
rtibia 2.97655
rfoot -12.4981 -26.0696
rtoes 6.22661
lfemur 6.30149 -43.9455 -13.4635
ltibia -4.78272
lfoot -21.1101 52.0102
ltoes 12.2914
1056
root 0.661549 17.4417 9.2244 8.2545 -0.74766 -8.53439
lowerback -2.16278 1.24517 6.04025
upperback -8.63718 1.93493 1.83208
thorax -7.73607 0.614447 -1.52749
lowerneck -12.9032 -5.23812 -5.81524
upperneck 26.4523 -8.63946 8.89633
head 11.3729 -3.48189 3.0492
rclavicle 6.21202e-015 -9.14409e-015
rhumerus -60.8025 -39.9938 -44.6456
rradius 16.666
rwrist 62.4633
rhand 2.12333 -33.525
rfingers 7.12502
rthumb 27.6225 -421.517
lclavicle 6.21202e-015 -9.14409e-015
lhumerus -51.4646 30.9478 60.2166
lradius 21.8955
lwrist -29.1905
lhand -21.8495 -12.5474
lfingers 7.12502
lthumb 4.55407 17.3836
rfemur -2.70975 24.2238 25.7043
rtibia 2.93864
rfoot -12.5077 -26.1724
rtoes 6.31736
lfemur 6.35333 -44.0623 -13.5044
ltibia -4.78322
lfoot -21.0535 52.0635
ltoes 12.1464
1057
root 0.65552 17.4426 9.21778 8.2272 -0.6389 -8.4658
lowerback -2.15723 1.24254 5.90282
upperback -8.65277 1.9288 1.81544
thorax -7.75817 0.61967 -1.46883
lowerneck -13.1081 -5.33107 -5.57355
upperneck 26.8479 -8.80293 8.67497
head 11.558 -3.54314 2.90394
rclavicle 2.88238e-015 -3.06128e-014
rhumerus -60.7242 -40.3267 -44.4896
rradius 16.5969
rwrist 62.4775
rhand 2.00995 -33.2919
rfingers 7.12502
rthumb 27.5141 -421.302
lclavicle 2.88238e-015 -3.06128e-014
lhumerus -51.5629 31.7006 59.7189
lradius 21.7589
lwrist -29.913
lhand -21.6542 -12.4413
lfingers 7.12502
lthumb 4.74263 17.4856
rfemur -2.67728 24.2351 25.6553
rtibia 2.89348
rfoot -12.5323 -26.276
rtoes 6.47034
lfemur 6.24901 -43.993 -13.4757
ltibia -4.76578
lfoot -20.6752 51.9624
ltoes 11.7503
1058
root 0.651672 17.4431 9.21247 8.22197 -0.531109 -8.41798
lowerback -2.19115 1.23887 5.81071
upperback -8.655 1.91949 1.81661
thorax -7.74285 0.622127 -1.41542
lowerneck -12.902 -5.33921 -5.7249
upperneck 26.6682 -8.85573 8.97886
head 11.476 -3.55623 3.03652
rclavicle 1.98785e-014 -1.82882e-014
rhumerus -60.4446 -40.4934 -44.5938
rradius 16.5328
rwrist 62.2907
rhand 1.85841 -32.8451
rfingers 7.12502
rthumb 27.3692 -420.878
lclavicle 1.98785e-014 -1.82882e-014
lhumerus -51.7355 32.5421 59.1875
lradius 21.7035
lwrist -30.3287
lhand -21.3993 -12.5202
lfingers 7.12502
lthumb 4.98883 17.4011
rfemur -2.67974 24.1499 25.6078
rtibia 2.87254
rfoot -12.5702 -26.2829
rtoes 6.71747
lfemur 6.10622 -43.8222 -13.4023
ltibia -4.757
lfoot -20.1454 51.7955
ltoes 11.2408
1059
root 0.648917 17.4424 9.20812 8.18475 -0.423155 -8.45779
lowerback -2.22232 1.22715 5.81012
upperback -8.64591 1.90276 1.84414
thorax -7.71686 0.616017 -1.38475
lowerneck -12.6744 -5.30076 -5.77998
upperneck 26.5199 -8.85301 9.23077
head 11.3892 -3.54098 3.14238
rclavicle -8.99501e-015 -4.69132e-014
rhumerus -60.2882 -40.6946 -44.5534
rradius 16.4825
rwrist 62.3993
rhand 1.60975 -32.2563
rfingers 7.12502
rthumb 27.1313 -420.326
lclavicle -8.99501e-015 -4.69132e-014
lhumerus -52.1765 33.7469 58.1529
lradius 21.5616
lwrist -30.7109
lhand -21.0878 -13.4686
lfingers 7.12502
lthumb 5.28956 16.4454
rfemur -2.6342 24.0482 25.6833
rtibia 2.86516
rfoot -12.6187 -26.2624
rtoes 6.97248
lfemur 6.07084 -43.7324 -13.3061
ltibia -4.77518
lfoot -19.7153 51.6966
ltoes 10.769
1060
root 0.644692 17.4427 9.20284 8.13211 -0.327956 -8.54245
lowerback -2.19962 1.22363 5.85077
upperback -8.66058 1.90217 1.84812
thorax -7.74587 0.612192 -1.40363
lowerneck -12.64 -5.34377 -5.69441
upperneck 26.6737 -8.97577 9.30172
head 11.4528 -3.57735 3.13986
rclavicle -1.6847e-014 -6.75868e-015
rhumerus -60.2457 -40.874 -44.5099
rradius 16.4784
rwrist 62.6198
rhand 1.45092 -31.7344
rfingers 7.12502
rthumb 26.9794 -419.828
lclavicle -1.6847e-014 -6.75868e-015
lhumerus -52.8755 35.2655 56.5243
lradius 21.2928
lwrist -31.392
lhand -20.8257 -15.0838
lfingers 7.12502
lthumb 5.54259 14.8238
rfemur -2.57781 24.0333 25.8265
rtibia 2.85429
rfoot -12.6106 -26.3287
rtoes 7.11493
lfemur 6.06697 -43.7564 -13.1845
ltibia -4.75787
lfoot -19.6603 51.6443
ltoes 10.7531
1061
root 0.639611 17.4443 9.19749 8.06502 -0.267943 -8.57005
lowerback -2.12132 1.26044 5.84831
upperback -8.68333 1.9568 1.80475
thorax -7.81129 0.635647 -1.45205
lowerneck -12.6968 -5.43443 -5.5858
upperneck 26.9675 -9.17975 9.35123
head 11.5949 -3.64404 3.11411
rclavicle 1.54555e-014 -4.37326e-015
rhumerus -60.0885 -40.878 -44.7445
rradius 16.51
rwrist 62.5259
rhand 1.37621 -31.3547
rfingers 7.12502
rthumb 26.9079 -419.459
lclavicle 1.54555e-014 -4.37326e-015
lhumerus -53.3165 36.4964 55.3455
lradius 21.155
lwrist -31.6756
lhand -20.7673 -15.1214
lfingers 7.12502
lthumb 5.59905 14.7846
rfemur -2.50826 24.0692 25.9091
rtibia 2.83677
rfoot -12.5856 -26.4251
rtoes 7.15606
lfemur 6.12376 -43.8756 -13.1827
ltibia -4.73074
lfoot -19.872 51.662
ltoes 11.0426
1062
root 0.634924 17.4453 9.19338 8.00369 -0.224746 -8.57741
lowerback -2.05556 1.32553 5.84836
upperback -8.71469 2.04806 1.74812
thorax -7.8758 0.676406 -1.51729
lowerneck -12.6504 -5.5738 -5.63964
upperneck 27.129 -9.41831 9.44751
head 11.6796 -3.74348 3.12781
rclavicle -9.29318e-015 -3.65764e-014
rhumerus -59.797 -40.6539 -45.2562
rradius 16.5617
rwrist 62.1072
rhand 1.21151 -31.1148
rfingers 7.12502
rthumb 26.7503 -419.244
lclavicle -9.29318e-015 -3.65764e-014
lhumerus -53.2782 36.9996 55.1702
lradius 21.2391
lwrist -30.8154
lhand -20.8765 -13.4807
lfingers 7.12502
lthumb 5.49355 16.428
rfemur -2.42877 24.1078 25.9672
rtibia 2.81301
rfoot -12.6057 -26.4882
rtoes 7.23052
lfemur 6.18538 -43.9195 -13.1977
ltibia -4.73805
lfoot -19.8218 51.6749
ltoes 10.9476
1063
root 0.631556 17.4456 9.19086 7.96961 -0.177833 -8.59505
lowerback -2.04223 1.37099 5.88131
upperback -8.75301 2.11037 1.70052
thorax -7.91913 0.701281 -1.5889
lowerneck -12.5364 -5.7539 -5.68739
upperneck 27.2701 -9.69507 9.46228
head 11.7417 -3.87212 3.10489
rclavicle -6.01324e-015 -5.60573e-014
rhumerus -59.5038 -40.3847 -45.7782
rradius 16.6081
rwrist 61.6952
rhand 1.01842 -30.9467
rfingers 7.12502
rthumb 26.5655 -419.104
lclavicle -6.01324e-015 -5.60573e-014
lhumerus -53.2416 37.3552 55.0182
lradius 21.2598
lwrist -29.9524
lhand -21.0207 -12.4024
lfingers 7.12502
lthumb 5.35439 17.51
rfemur -2.35052 24.1558 26.025
rtibia 2.73976
rfoot -12.6265 -26.5606
rtoes 7.29467
lfemur 6.17621 -43.8463 -13.1428
ltibia -4.74831
lfoot -19.5874 51.6008
ltoes 10.6372
